<svg width="1192" height="200" viewBox="0 0 1192 200" fill="none" xmlns="http://www.w3.org/2000/svg">
<ellipse cx="80" cy="50" rx="20" ry="50" fill="#6DC388"/>
<ellipse cx="120" cy="150" rx="20" ry="50" fill="#6DC388"/>
<ellipse cx="150" cy="80" rx="20" ry="50" transform="rotate(-90 150 80)" fill="#6DC388"/>
<ellipse cx="50" cy="120" rx="20" ry="50" transform="rotate(-90 50 120)" fill="#6DC388"/>
<path d="M329.4 175V26H356.2V151.6H424.6V175H329.4ZM548.369 116.4C548.369 120.2 547.969 124.4 546.969 127.4H465.969C467.569 144.2 479.969 155 496.569 155C509.169 155 518.169 149 523.169 140.2L543.969 150.4C537.169 166.2 519.169 177.4 496.369 177.4C462.569 177.4 439.369 152 439.369 120C439.369 87.2 463.369 62.8 494.569 62.8C525.769 62.8 548.369 87 548.369 116.4ZM466.569 108H520.969C519.969 93.8 508.369 83.8 494.569 83.8C480.569 83.8 469.569 92.6 466.569 108ZM612.848 62.8C639.648 62.8 658.848 78.6 658.848 101.8V175H634.648V163C626.448 172.6 615.048 177.4 601.648 177.4C577.048 177.4 561.048 163.4 561.048 145C561.048 128.8 574.048 115.4 599.648 111.2L633.248 105.4V101.8C633.248 92 624.648 85.6 612.648 85.6C600.848 85.6 591.248 92.2 587.448 102.4L565.248 91.6C571.648 74.4 590.448 62.8 612.848 62.8ZM604.848 157.6C621.048 157.6 633.248 146 633.248 131.2V124.4L603.248 129.8C591.648 132 587.648 138.2 587.648 144C587.648 153 594.648 157.6 604.848 157.6ZM724.897 177.4C702.097 177.4 682.497 166.6 675.097 146.4L694.897 137.2C700.697 150 711.497 156.8 724.897 156.8C735.697 156.8 743.097 152 743.097 144.8C743.097 137.2 734.897 134.4 728.497 132.6L709.297 127.6C689.497 122.4 679.897 111.2 679.897 96.2C679.897 76.4 696.697 62.8 721.697 62.8C743.697 62.8 761.297 73.6 768.097 91.2L748.297 100.4C744.097 90.2 734.297 84 721.697 84C711.697 84 705.097 88.4 705.097 95.2C705.097 102.4 712.697 105.2 718.297 107L738.497 112.4C757.897 117.6 768.297 129 768.297 144C768.297 163.8 750.497 177.4 724.897 177.4ZM891.533 116.4C891.533 120.2 891.133 124.4 890.133 127.4H809.133C810.733 144.2 823.133 155 839.733 155C852.333 155 861.333 149 866.333 140.2L887.133 150.4C880.333 166.2 862.333 177.4 839.533 177.4C805.733 177.4 782.533 152 782.533 120C782.533 87.2 806.533 62.8 837.733 62.8C868.933 62.8 891.533 87 891.533 116.4ZM809.733 108H864.133C863.133 93.8 851.533 83.8 837.733 83.8C823.733 83.8 812.733 92.6 809.733 108ZM962.013 176.2C936.613 176.2 922.013 162 922.013 137.8V88.4H901.613V65.6H905.013C915.813 65.6 922.013 59.6 922.013 49V33H947.613V65.6H974.413V88.4H947.613V137.8C947.613 146.6 951.013 155.4 967.613 155.4C969.213 155.4 972.413 155.2 975.013 154.8V175.2C971.013 175.8 966.213 176.2 962.013 176.2ZM995.159 50.8V24.2H1020.76V50.8H995.159ZM995.159 175V65.2H1020.76V175H995.159ZM1098.53 177.4C1065.73 177.4 1040.93 152.6 1040.93 120C1040.93 87.4 1065.53 62.8 1098.53 62.8C1121.93 62.8 1141.53 76 1148.33 95L1126.33 105.8C1122.13 94 1111.33 86.4 1098.33 86.4C1080.73 86.4 1067.53 100.2 1067.53 120.2C1067.53 139.6 1080.33 154 1098.53 154C1111.93 154 1122.13 146.2 1126.33 134.4L1148.33 145.6C1141.93 163.8 1122.13 177.4 1098.53 177.4Z" fill="#FFFFFF"/>
</svg>
